<svg xmlns="http://www.w3.org/2000/svg" viewBox="0 0 64 64" role="img" aria-labelledby="title desc">
  <title id="title">Truth Raiders sigil</title>
  <desc id="desc">A gold hexagonal dungeon sigil for Truth Raiders.</desc>
  <rect width="64" height="64" rx="12" fill="#070906"/>
  <path fill="#111408" d="M32 5 56 18.5v27L32 59 8 45.5v-27z"/>
  <path fill="none" stroke="#d6c36f" stroke-linejoin="round" stroke-width="3.6" d="M32 7.8 53.4 20v24L32 56.2 10.6 44V20z"/>
  <path fill="none" stroke="#8f7c39" stroke-linejoin="round" stroke-width="1.6" d="M32 15.5 46.5 24v16L32 48.5 17.5 40V24z"/>
  <path fill="#d6c36f" d="M32 18.2 37.2 29H26.8z"/>
  <path fill="none" stroke="#d6c36f" stroke-linecap="round" stroke-width="4.4" d="M32 28v18"/>
  <circle cx="32" cy="36.2" r="7.2" fill="#070906" stroke="#d6c36f" stroke-width="3"/>
  <path fill="none" stroke="#d6c36f" stroke-linecap="round" stroke-width="2.8" d="M22.5 25.5 32 20l9.5 5.5M22.5 38.5 32 44l9.5-5.5"/>
  <path fill="#d6c36f" d="M31.1 31h1.8v10h-1.8z"/>
</svg>
